<mxfile host="app.diagrams.net" modified="2024-04-06T12:00:08.918Z" agent="Mozilla/5.0 (Windows NT 10.0; Win64; x64) AppleWebKit/537.36 (KHTML, like Gecko) Chrome/123.0.0.0 Safari/537.36 Edg/123.0.0.0" version="24.2.2" etag="DJUQaCMDV6uLCr4p2M7r" type="github">
  <diagram name="第 1 页" id="Si89tMqwFTTI9H2EBgi0">
    <mxGraphModel>
      <root>
        <mxCell id="0" />
        <mxCell id="1" parent="0" />
      </root>
    </mxGraphModel>
  </diagram>
</mxfile>
